<svg width="580" height="400" xmlns="http://www.w3.org/2000/svg">
 <!-- Created with Method Draw - http://github.com/duopixel/Method-Draw/ -->

 <g>
  <title>background</title>
  <rect fill="#fff" id="canvas_background" height="402" width="582" y="-1" x="-1"/>
  <g display="none" overflow="visible" y="0" x="0" height="100%" width="100%" id="canvasGrid">
   <rect fill="url(#gridpattern)" stroke-width="0" y="0" x="0" height="100%" width="100%"/>
  </g>
 </g>
 <g>
  <title>Layer 1</title>
  <defs>
   <style type="text/css"/>
  </defs>
  <g stroke="null" id="svg_5">
   <path stroke="#ffffff" id="svg_4" d="m383.403263,252.560984q-0.325123,0.635348 -0.657257,1.263907c-0.067259,0.127069 -0.136052,0.253483 -0.203749,0.380333q-0.232449,0.435763 -0.467309,0.869552c-0.085444,0.156866 -0.17242,0.313073 -0.258741,0.469502q-0.212951,0.386466 -0.427874,0.771619c-0.093988,0.1676 -0.189289,0.334326 -0.284811,0.501268q-0.208131,0.366532 -0.418234,0.731748q-0.148541,0.256987 -0.299053,0.51288q-0.20857,0.356453 -0.419547,0.711809q-0.153361,0.258084 -0.308474,0.514854q-0.212074,0.352071 -0.426558,0.702388q-0.15621,0.255454 -0.31395,0.510033q-0.217991,0.350536 -0.438172,0.701075q-0.157523,0.249537 -0.315483,0.498639q-0.226535,0.355139 -0.455918,0.708524q-0.15533,0.240996 -0.31154,0.47936q-0.23946,0.366093 -0.481988,0.729777c-0.099244,0.148977 -0.197177,0.298174 -0.297737,0.446715q-0.262901,0.391506 -0.531283,0.780165c-0.087634,0.128166 -0.175267,0.257206 -0.262901,0.384934q-0.321838,0.465121 -0.648494,0.926296c-0.053676,0.075803 -0.106475,0.152265 -0.16015,0.228068q-0.826612,1.163347 -1.681702,2.304785c-0.068137,0.09092 -0.137367,0.180964 -0.205721,0.271446q-0.323152,0.428533 -0.649152,0.854436c-0.090481,0.11765 -0.182058,0.234423 -0.2732,0.351852q-0.297079,0.383181 -0.596788,0.764391c-0.10056,0.127508 -0.201997,0.254141 -0.303215,0.38121q-0.289851,0.364122 -0.581891,0.725832q-0.15862,0.195864 -0.318551,0.390631q-0.29029,0.354918 -0.582987,0.708086q-0.161685,0.194548 -0.324465,0.388219q-0.295327,0.352949 -0.59416,0.703048q-0.161028,0.18907 -0.322932,0.377265q-0.30672,0.356017 -0.61563,0.709402c-0.103847,0.118745 -0.207912,0.237928 -0.312417,0.356234q-0.323371,0.366749 -0.650466,0.730432c-0.096398,0.107352 -0.192357,0.214923 -0.288974,0.321836q-0.353384,0.389973 -0.710056,0.776661l-0.240993,0.262902q-0.4121,0.443868 -0.82902,0.883574c-0.045132,0.047323 -0.089387,0.095304 -0.134519,0.142624q-1.49285,1.569752 -3.045289,3.081883l-0.080185,0.077338q-0.468405,0.455042 -0.942069,0.905044c-0.061345,0.058277 -0.123345,0.116115 -0.184909,0.175269q-0.424148,0.400927 -0.852022,0.797692c-0.077119,0.071422 -0.154674,0.142186 -0.232013,0.213388q-0.408593,0.37617 -0.820693,0.748836q-0.126194,0.113707 -0.252827,0.226974q-0.406841,0.365216 -0.817188,0.726489l-0.256987,0.225219q-0.415168,0.362806 -0.832526,0.72145l-0.246252,0.210761q-0.432914,0.368942 -0.869331,0.7335c-0.072518,0.060468 -0.144815,0.121374 -0.217552,0.181622q-0.464898,0.386466 -0.934619,0.766801l-0.161247,0.131451q-0.525805,0.425245 -1.055335,0.844357l-0.049733,0.039656q-2.859944,2.256585 -5.867329,4.330232l-0.034617,0.023663q-0.573127,0.394355 -1.151733,0.782356l-0.103189,0.068792q-0.547715,0.36653 -1.09959,0.726489l-0.132986,0.086319q-0.542456,0.352729 -1.089294,0.699323l-0.136271,0.086102q-0.552971,0.349223 -1.110544,0.692531l-0.11524,0.070983q-0.580358,0.356234 -1.165316,0.705676l-0.063972,0.03834a111.834642,111.834832 0 0 1 -11.737073,6.090589l-0.023222,0.010515q-0.662955,0.29511 -1.32985,0.582113l-0.030671,0.010735a111.432838,111.433028 0 0 1 -15.491541,5.345696a112.938613,112.938805 0 0 1 -57.529244,0a111.465483,111.465673 0 0 1 -26.478902,-10.800937a112.559378,112.559569 0 0 1 -22.582027,-16.866331l-0.0092,-0.008763q-0.501489,-0.483741 -0.997278,-0.9734l-0.013147,-0.013145q-0.49557,-0.489658 -0.985885,-0.985887l-0.0092,-0.009202a112.63562,112.635811 0 0 1 -16.403158,-21.145519l-0.007667,-0.012926q-0.359959,-0.59964 -0.712466,-1.204972l-0.010737,-0.018404q-0.352288,-0.604679 -0.697348,-1.213738l-0.008108,-0.014239q-0.347906,-0.614537 -0.688367,-1.233893a111.665945,111.666135 0 0 1 -13.802828,-53.946189c0,-61.950934 50.220986,-112.172006 112.171815,-112.172006s112.171813,50.221072 112.171813,112.172006a111.699904,111.700094 0 0 1 -12.268792,51.061047zm-99.903021,-150.036411c-54.661853,0 -98.975196,44.313421 -98.975196,98.975364a98.757644,98.757812 0 0 0 6.190919,34.517647c13.900542,18.162225 42.382982,31.307382 75.937689,33.166766a67.018277,67.018391 0 0 0 7.754535,0.451316q2.820288,0 5.570031,-0.230697q0.554726,0.011612 1.112079,0.011612c29.523314,0 53.45688,-23.933607 53.45688,-53.456971a53.294101,53.294191 0 0 0 -16.961386,-39.046592a33.02014,33.020196 0 0 0 -6.108325,-5.200006a32.063832,32.063887 0 0 0 -4.014087,-2.252204c-0.12685,-0.07186 -0.250853,-0.147883 -0.378141,-0.219085c0,0.013803 0.001533,0.027823 0.00241,0.041845c-10.87738,-4.943236 -22.475552,-2.551255 -27.367514,6.28251c-3.571094,6.449669 -2.694752,14.760039 1.564271,21.976948c-0.175269,0.003287 -0.347251,0.013147 -0.5223,0.013147a26.39784,26.397885 0 0 1 -19.476706,-44.218556c-0.002191,-0.029138 -0.003287,-0.058715 -0.005478,-0.087635c0.175269,-0.156208 0.353387,-0.308253 0.529969,-0.462491a26.494238,26.494283 0 0 1 5.478015,-4.333081a69.442239,69.442357 0 0 1 40.421288,-12.899343c0.494478,0 0.985885,0.008546 1.478827,0.018623c0.492942,-0.009858 0.984352,-0.018623 1.478827,-0.018623c37.704629,0 68.64236,28.95221 71.807052,65.837081c-0.058277,-54.612868 -44.347302,-98.867574 -98.973661,-98.867574z" fill="#B1FFFF"/>
  </g>
 </g>
</svg>